# xmcd
#
# Track frame offsets:
#	150
#	25828
#	55236
#	73494
#	111987
#	134185
#	162354
#	188927
#	202915
#	216482
#	240492
#	265989
#	315484
#
# Disc length: 4357 seconds
#
# Revision: 0
# Processed by: cddbd v1.5.1PL0 Copyright (c) Steve Scherf et al.
# Submitted via: EasyCDDAExtractor 8.1.0.1
#
DISCID=cd11030d
DTITLE=Bob Dylan - Greatest Hits III
DYEAR=1900
DGENRE=
TTITLE0=Tangled up in Blue
TTITLE1=Changing of the Guards
TTITLE2=The Groom's Still Waiting at the Altar
TTITLE3=Hurricane
TTITLE4=Forever Young
TTITLE5=Jokerman
TTITLE6=Dignity
TTITLE7=Silvio
TTITLE8=Ring Them Bells
TTITLE9=Gotta Serve Somebody
TTITLE10=Series of Dreams
TTITLE11=Brownsville Girl
TTITLE12=Knockin' on Heaven's Door
EXTD=
EXTT0=
EXTT1=
EXTT2=
EXTT3=
EXTT4=
EXTT5=
EXTT6=
EXTT7=
EXTT8=
EXTT9=
EXTT10=
EXTT11=
EXTT12=
PLAYORDER=
